<svg width="479" height="342" viewBox="0 0 479 342" fill="none" xmlns="http://www.w3.org/2000/svg">
<path d="M476.276 171.807C472.569 160.028 462.502 147.145 446.473 143.504C429.517 139.653 416.237 148.488 411.147 152.631C406.057 148.486 392.777 139.652 375.822 143.504C359.794 147.145 349.725 160.028 346.019 171.807C341.609 185.819 346.261 198.089 348.168 203.121C351.37 211.567 356.045 217.516 361.367 223.274C369.67 232.254 385.207 246.893 411.113 261V261.037C411.125 261.031 411.135 261.024 411.145 261.019C411.156 261.024 411.166 261.031 411.178 261.037V261C437.086 246.893 452.623 232.254 460.926 223.274C466.249 217.516 470.923 211.567 474.125 203.121C476.032 198.087 480.683 185.819 476.274 171.807H476.276Z" fill="#00AC56"/>
<path d="M273.346 121.948C306.775 121.948 333.875 94.8483 333.875 61.4189C333.875 27.9895 306.775 0.889648 273.346 0.889648C239.916 0.889648 212.816 27.9895 212.816 61.4189C212.816 94.8483 239.916 121.948 273.346 121.948Z" fill="#FF008A"/>
<path d="M70.5198 156.617L109.81 185.386L105.266 136.492L144.552 107.515L97.166 96.8946L82.1547 50.2175L57.4105 92.5474L8.8486 92.6756L40.9441 129.459L25.9405 176.215L70.5198 156.617Z" fill="#FBCE08"/>
<path d="M121.459 231.537C126.996 231.028 131.92 231.67 136.23 233.461C140.54 235.253 144.031 238.156 146.703 242.171C149.374 246.186 150.986 251.19 151.537 257.185L154.551 289.982L140.679 291.257L139.356 276.871L111.953 279.389L113.276 293.776L99.5742 295.035L96.5597 262.237C96.0088 256.243 96.681 251.029 98.5763 246.594C100.472 242.16 103.375 238.669 107.286 236.122C111.197 233.574 115.921 232.046 121.459 231.537ZM138.333 265.738L137.546 257.175C137.09 252.208 135.518 248.582 132.833 246.295C130.142 243.952 126.684 242.974 122.459 243.363C118.178 243.756 114.927 245.35 112.709 248.145C110.542 250.877 109.687 254.727 110.143 259.694L110.93 268.257L138.333 265.738Z" fill="#00B3E3"/>
<path d="M162.882 259.51L187.116 257.282L188.1 267.987L163.866 270.214L162.882 259.51Z" fill="#FFA000"/>
<path d="M249.236 270.053L250.259 281.186L197.851 286.003L197.111 277.953L209.737 259.348L200.231 260.222L199.279 249.86L217.262 248.207L226.848 234.114L193.964 237.136L192.941 226.004L243.465 221.36L244.197 229.324L232.186 247.095L240.921 246.292L241.865 256.568L224.739 258.142L214.469 273.249L249.236 270.053Z" fill="#FF451A"/>
</svg>
