<svg width="340" height="325" viewBox="0 0 340 325" fill="none" xmlns="http://www.w3.org/2000/svg">
<g clip-path="url(#clip0_1004_1024)">
<path d="M332.405 150.659C330.515 150.745 328.531 149.946 327.022 148.383C325.527 146.835 325.096 144.818 324.895 143.226C324.701 141.728 324.787 140.194 324.895 138.876C325.175 135.181 325.649 131.81 326.124 128.721C326.145 128.584 326.167 128.404 326.188 128.188C326.447 125.933 326.842 123.665 328.467 122.872C328.941 122.642 329.918 122.368 331.147 123.125C331.816 123.535 332.161 124.154 332.412 124.601L332.455 124.68C332.98 125.609 333.497 126.488 334.015 127.359C335.546 129.945 336.99 132.394 338.198 135.52C340.806 142.304 339.491 147.749 334.683 150.083C333.972 150.428 333.203 150.616 332.419 150.652L332.405 150.659ZM329.652 125.71C329.437 126.171 329.25 127.115 329.085 128.526C329.056 128.778 329.027 128.994 329.006 129.16C328.467 132.668 328.057 135.7 327.805 139.092C327.719 140.266 327.64 141.627 327.798 142.844C328.014 144.537 328.423 145.61 329.128 146.338C330.17 147.418 331.902 148.181 333.397 147.454C338.147 145.149 336.422 139.078 335.459 136.578C334.345 133.683 332.958 131.342 331.492 128.858C330.968 127.972 330.436 127.071 329.904 126.128L329.854 126.041C329.796 125.941 329.724 125.804 329.66 125.71H329.652Z" fill="#B2B2B2"/>
<path d="M331.964 143.125L328.781 143.052C325.627 142.981 323.011 145.485 322.94 148.647L322.68 160.11C322.609 163.271 325.108 165.892 328.263 165.964L331.446 166.036C334.6 166.108 337.216 163.604 337.287 160.442L337.547 148.979C337.618 145.817 335.119 143.196 331.964 143.125Z" fill="#D30000"/>
<path d="M204.615 135.195C201.927 135.318 198.988 134.979 196.027 132.948C191.973 130.168 189.911 125.025 190.903 120.149C191.154 118.925 191.779 117.65 192.635 116.649C194.338 114.647 196.71 112.328 200.03 112.177H200.051C205.427 111.946 209.38 113.206 212.492 116.123C217.12 120.474 217.76 126.948 214.016 131.522C212.47 133.409 209.826 134.677 206.757 135.015C206.067 135.087 205.355 135.159 204.622 135.188L204.615 135.195ZM200.174 115.382C198.097 115.475 196.429 117.125 195.071 118.731C194.568 119.328 194.18 120.099 194.036 120.798C193.31 124.37 194.87 128.281 197.831 130.312C200.425 132.091 202.941 132.221 206.397 131.839C208.647 131.594 210.516 130.737 211.536 129.498C214.533 125.839 213.182 121.187 210.3 118.471C207.864 116.181 204.644 115.202 200.188 115.389H200.174V115.382Z" fill="#B2B2B2"/>
<path d="M326.819 128.778C325.727 128.828 324.584 128.742 323.391 128.475C319.014 127.488 315.888 124.204 315.414 120.106C315.284 118.997 315.478 117.895 315.996 116.822C316.808 115.122 318.238 112.753 321.235 111.751C324.246 110.75 328.717 109.9 332.914 111.55C335.688 112.645 337.808 114.568 338.721 116.836C339.49 118.738 339.404 120.819 338.484 122.843C337.65 124.672 335.832 126.149 333.079 127.244C331.153 128.007 329.09 128.677 326.827 128.778H326.819ZM318.634 118.089C318.36 118.658 318.26 119.22 318.317 119.768C318.72 123.218 321.537 125.047 324.038 125.616C326.934 126.271 329.579 125.479 332.001 124.514C334.028 123.714 335.314 122.742 335.825 121.626C336.414 120.329 336.479 119.091 336.011 117.938C335.401 116.411 333.877 115.079 331.843 114.279C328.465 112.947 324.714 113.682 322.162 114.539C320.667 115.036 319.575 116.138 318.634 118.097V118.089Z" fill="#B2B2B2"/>
<path d="M255.742 20.5847C256.791 20.3615 257.733 20.5991 258.567 21.2546C260.342 22.659 262.174 23.4513 264.395 23.5737C265.365 23.6241 266.249 23.4369 267.097 23.2568C267.953 23.0839 268.578 23.1488 269.311 23.4873C270.375 23.9698 271.345 24.2939 272.488 24.5172C273.357 24.6901 274.011 25.1222 274.557 25.828C276.153 27.9239 278.05 29.422 280.508 30.3223C282.089 30.9056 283.706 30.9489 285.316 30.9056C286.919 30.8624 288.04 31.6619 288.579 33.0735C289.398 35.2198 290.448 36.8259 292.273 38.1152C293.071 38.6769 293.919 38.9866 294.731 39.2963C295.55 39.606 296.039 39.995 296.477 40.6648C297.462 42.1629 298.59 43.2576 300.049 44.2731C301.12 45.015 301.594 46.0593 301.458 47.3557C301.17 50.1142 301.566 52.5558 302.867 54.9902C303.657 56.4666 304.821 57.5902 306.043 58.6129C307.265 59.6356 307.574 60.9609 307.021 62.3437C306.187 64.454 305.899 66.3122 306.388 68.4729C306.604 69.4164 307.013 70.2158 307.409 70.9793C307.804 71.7499 307.897 72.3693 307.775 73.14C307.545 74.5732 307.516 75.8264 307.739 77.2525C307.84 77.8791 307.761 78.4193 307.531 79.0315C306.216 82.611 306.402 85.9097 308.113 89.3019C308.875 90.8072 310.053 91.8876 311.261 92.9319C312.468 93.9762 312.756 95.2943 312.202 96.6843C311.354 98.8018 311.038 100.682 311.512 102.849C311.721 103.8 312.094 104.607 312.511 105.363C312.928 106.119 312.907 106.804 312.842 107.545C312.454 112.191 313.237 116.339 317.894 118.565C322.551 120.798 327.029 119.242 331.844 116.858C333.145 116.21 334.647 112.926 333.842 111.053C333.526 110.311 333.195 109.605 332.678 108.95C331.952 108.035 331.808 107.005 332.16 105.889C332.376 105.197 332.577 104.542 332.627 103.793C332.663 103.231 332.663 102.727 332.577 102.115C332.491 101.503 332.649 100.739 332.936 100.185C333.375 99.342 333.727 98.3841 333.634 97.4982C333.411 95.3951 332.563 94.1491 330.895 92.9391C329.594 91.9884 329.199 90.4687 329.789 89.0571C330.759 86.7163 330.823 84.7429 329.4 82.7478C328.718 81.7827 328.552 80.8825 328.797 79.8957C329.084 78.7434 329.185 77.6702 328.876 76.7123C328.574 75.7544 328.179 75.3007 327.668 74.602C326.95 73.6153 326.763 72.7006 327.108 71.5483C327.316 70.8424 327.496 70.223 327.546 69.474C327.582 68.9122 327.561 68.4225 327.474 67.8103C327.388 67.1981 327.525 66.4562 327.819 65.8945C328.265 65.0302 328.574 64.1659 328.495 63.2296C328.308 61.0113 327.331 60.1038 325.764 58.6345C324.535 57.4822 323.788 56.8916 324.729 54.558C325.433 52.8151 325.843 49.4588 323.356 47.6654C322.551 47.0892 321.984 45.4687 322.429 44.3163C322.645 43.7546 322.76 43.1424 322.674 42.487C322.372 40.1678 321.071 38.2736 318.972 37.2581C317.528 36.5595 316.953 35.6088 316.967 34.0314C316.989 31.9716 316.069 29.991 314.337 28.889C313.553 28.3848 312.878 28.32 312.044 28.1472C310.873 27.9023 310.082 27.3477 309.565 26.2602C309.248 25.5903 308.954 25.007 308.479 24.4164C308.127 23.977 307.782 23.6169 307.308 23.2208C306.834 22.8247 306.438 22.1764 306.273 21.5571C306.022 20.6135 305.662 19.7493 304.972 19.1083C303.341 17.5886 302.018 17.5886 299.862 17.5454C298.181 17.5094 297.218 17.567 296.355 15.1902C295.708 13.4184 293.782 10.6023 290.713 10.9409C289.722 11.0489 288.22 10.2134 287.774 9.04664C287.558 8.47766 287.221 7.9663 286.725 7.50535C285.719 6.58346 284.425 6.02888 283.059 5.80561C282.506 5.71198 281.967 5.4743 281.55 5.1574C280.451 4.32193 279.171 3.74575 277.856 3.78896C276.915 3.82497 276.333 4.09866 275.528 4.41556C274.414 4.8549 273.451 4.79008 272.43 4.14908C271.805 3.75295 271.237 3.41444 270.526 3.16956C269.987 2.9823 269.512 2.87427 268.894 2.79504C268.276 2.71582 267.593 2.37731 267.126 1.94517C266.407 1.28256 265.638 0.742384 264.719 0.576731C262.534 0.173402 261.427 0.879228 259.594 2.00999C258.164 2.89587 257.381 3.42884 255.383 1.89475C253.895 0.749586 250.762 -0.597245 248.354 1.34018C247.578 1.96678 245.875 2.06041 244.876 1.32577C244.387 0.965656 243.833 0.69917 243.165 0.591136C241.57 0.331853 240.039 0.663159 238.594 1.46261C238.012 1.78672 237.459 1.90916 236.769 1.90196C234.792 1.90196 232.909 2.78064 231.831 4.41556C231.321 5.19341 231.249 5.85602 231.062 6.68429C230.804 7.85106 230.229 8.6073 229.129 9.08265C228.454 9.37795 227.864 9.65164 227.261 10.1054C226.815 10.4439 226.456 10.7752 226.046 11.2361C225.636 11.6971 224.982 12.0716 224.364 12.2229C223.423 12.4533 222.546 12.7918 221.899 13.4545C220.361 15.039 220.332 16.3426 220.253 18.4745C220.196 20.1454 220.196 21.0745 217.831 21.874C216.063 22.4645 213.21 24.3155 213.491 27.3693C213.577 28.356 212.714 29.8397 211.557 30.2286C210.989 30.4159 210.45 30.8192 210.005 31.2298C209.818 31.4026 209.566 31.7339 209.43 31.9284C209.293 32.1228 209.142 32.2741 208.999 32.4181C207.935 33.4697 207.123 34.8381 207.058 36.293C207.022 37.2293 207.259 37.8127 207.511 38.6265C207.87 39.7645 207.741 40.6936 207.029 41.6515C206.591 42.2421 206.217 42.775 205.923 43.4593C205.7 43.9778 205.556 44.4388 205.434 45.0366C205.312 45.6416 204.931 46.2898 204.471 46.7291C203.774 47.3917 203.177 48.1336 202.955 49.0266C202.416 51.1585 203.034 52.2893 204.033 54.1619C204.809 55.624 205.276 56.4234 203.623 58.2816C202.387 59.6645 200.849 62.6894 202.617 65.1814C203.192 65.9881 203.156 67.6734 202.365 68.6025C201.977 69.0563 201.69 69.618 201.524 70.2518C201.244 71.3322 201.302 72.5062 201.589 73.6153C201.74 74.2131 201.697 74.9333 201.51 75.4519C201.323 75.9705 201.215 76.4098 201.215 76.8636C201.208 77.7422 201.388 78.3905 201.639 79.1899C201.991 80.3135 201.826 81.2714 201.122 82.2221C200.683 82.8055 200.295 83.3456 199.994 84.0371C199.771 84.5484 199.62 85.0166 199.49 85.6216C199.361 86.2266 198.973 86.882 198.513 87.3141C197.802 87.9767 197.212 88.7114 196.975 89.6189C196.422 91.7651 197.04 92.9103 198.032 94.8117C198.808 96.2954 199.282 97.0948 197.636 98.989C196.407 100.401 194.876 103.454 196.673 105.975C197.248 106.789 197.248 108.496 196.472 109.454C196.098 109.922 195.775 110.455 195.66 111.125C195.358 112.839 195.487 114.424 196.458 116.044C196.968 116.887 197.902 117.765 199.045 117.974C203.882 118.86 208.884 119.674 213.253 117.009C217.616 114.337 218.823 110.117 218.399 105.327C218.255 103.685 217.393 102.281 216.624 100.919C215.855 99.558 215.992 98.2112 216.983 97.0948C218.5 95.3951 219.398 93.7098 219.678 91.5131C219.801 90.5552 219.678 89.6909 219.571 88.8338C219.463 87.9767 219.592 87.3789 219.966 86.6803C221.576 83.6481 221.899 80.7816 220.828 77.5406C220.411 76.2874 220.627 75.2791 221.454 74.2923C223.911 71.3682 224.882 68.2136 224.386 64.4396C224.163 62.7759 223.43 61.4578 222.639 60.0966C221.849 58.7282 222.021 57.4317 223.027 56.3082C224.551 54.6084 225.442 53.0311 225.758 50.7552C225.809 50.4095 225.773 50.0998 225.794 49.6821C225.866 48.4577 226.434 47.543 227.548 46.938C230.286 45.4399 232.191 43.4089 233.355 40.5351C233.987 38.9722 234.059 37.4525 234.059 35.8608C234.059 34.2691 234.9 33.2176 236.309 32.7494C238.465 32.0292 240.111 31.0497 241.447 29.2707C242.03 28.4929 242.367 27.6862 242.684 26.8868C243 26.0873 243.46 25.6047 244.092 25.223C244.725 24.8413 245.134 24.582 245.695 24.1571C246.255 23.7321 246.888 23.5233 247.585 23.4873C248.505 23.4441 249.403 23.3792 250.287 23.156C251.904 22.7454 253.284 22.054 254.635 21.0961C254.988 20.8512 255.318 20.6568 255.735 20.5631L255.742 20.5847Z" fill="#FF0095"/>
<path d="M221.462 131.154C219.392 131.702 217.085 132.372 214.491 133.337C213.14 133.841 213.082 133.913 211.731 134.439C205.651 136.801 202.783 136.909 202.69 137.925C202.589 138.983 205.608 140.071 206.88 140.525C211.048 142.023 214.038 141.713 221.944 142.332C226.313 142.671 231.057 143.046 240.371 142.858C252.402 142.613 264.483 143.089 276.564 142.592C279.424 142.477 282.277 142.325 285.131 142.145C299.059 141.252 313.016 139.488 326.29 135.274C328.079 134.705 330.408 133.675 330.897 131.695C331.594 128.864 328.755 128.893 326.707 128.554C320.627 127.553 314.518 126.747 308.38 126.127C296.112 124.888 283.772 124.42 271.447 124.723C261.349 124.968 254.098 125.875 246.307 126.761C238.775 127.618 230.316 128.807 221.462 131.147V131.154Z" fill="#D30000"/>
<path d="M213.018 136.578C209.073 136.124 204.473 135.829 201.764 138.746C200.154 140.482 199.651 142.952 199.256 145.293C191.3 192.295 197.401 240.587 192.701 288.028C191.846 296.613 190.991 306.365 196.726 312.797C199.342 315.735 202.993 317.5 206.55 319.178C210.64 321.101 214.779 323.017 219.192 324.018C225.919 325.538 232.933 324.854 239.782 324.018C252.065 322.513 264.282 320.525 276.457 318.314C288.912 316.045 301.324 313.539 313.685 310.787C319.665 309.455 326.19 307.698 329.626 302.62C336.388 292.717 334.168 278.593 333.83 267.394C333.061 241.681 332.579 215.955 332.385 190.228C332.292 177.365 332.263 164.501 332.313 151.638C332.328 147.454 335.138 126.423 326.255 130.226C320.089 132.869 313.513 133.704 306.893 134.727C292.16 136.996 277.291 138.335 262.392 138.732C245.913 139.171 229.405 138.458 213.026 136.585L213.018 136.578Z" fill="#FF451A"/>
<path d="M197.643 161.426C194.56 161.563 192.066 159.279 190.895 156.802C190.097 155.117 189.946 153.114 190.406 150.5C190.694 148.872 191.269 147.259 191.851 145.768C193.295 142.03 194.862 138.58 196.609 134.784C196.68 134.633 196.767 134.41 196.874 134.151C197.96 131.515 199.189 128.922 201.251 128.648C201.833 128.569 202.955 128.634 203.954 129.937C204.478 130.629 204.6 131.45 204.687 132.048L204.715 132.235C204.938 133.69 205.204 135.145 205.456 136.549C206.045 139.797 206.649 143.146 206.836 146.726C207.288 155.203 204.263 160.403 198.333 161.354C198.103 161.39 197.873 161.411 197.643 161.426ZM201.46 132.12C201.05 132.653 200.497 133.74 199.828 135.368C199.699 135.677 199.591 135.937 199.512 136.117C197.787 139.862 196.242 143.262 194.833 146.913C194.23 148.469 193.784 149.765 193.554 151.054C193.216 152.956 193.288 154.382 193.784 155.426C194.532 157.004 196.07 158.48 197.83 158.185C203.091 157.342 203.896 151.573 203.652 146.891C203.472 143.514 202.911 140.409 202.315 137.118C202.056 135.692 201.79 134.215 201.56 132.725L201.532 132.508C201.517 132.4 201.496 132.249 201.467 132.12H201.46Z" fill="#B2B2B2"/>
<path d="M201.717 152.792L198.553 152.433C195.418 152.078 192.589 154.337 192.234 157.48L190.949 168.873C190.594 172.015 192.849 174.851 195.984 175.206L199.148 175.564C202.284 175.92 205.113 173.66 205.467 170.518L206.753 159.124C207.107 155.982 204.853 153.147 201.717 152.792Z" fill="#D30000"/>
<path d="M11.2804 205.163L7.95985 204.433C6.05226 204.014 4.16699 205.225 3.74898 207.136L1.56141 217.141C1.14339 219.052 2.35093 220.942 4.25852 221.36L7.57912 222.09C9.4867 222.509 11.372 221.298 11.79 219.387L13.9776 209.382C14.3956 207.471 13.188 205.581 11.2804 205.163Z" fill="#F28F00"/>
<path d="M17.5629 174.477C28.6666 159.806 31.0814 141.591 37.1112 124.767C43.371 107.308 53.217 92.0539 70.3146 83.6056C86.2623 75.7335 104.776 75.4598 120.587 84.1818C128.248 88.4024 134.874 94.5243 139.122 102.36C143.894 111.176 146.057 120.87 146.122 131.026C146.287 155.492 141.35 179.908 130.972 202.156C127.091 210.467 115.319 205.087 118.761 196.559C126.264 177.985 131.195 158.913 132.201 138.912C132.618 130.608 132.388 122.095 129.527 114.323C126.911 107.208 122.887 102.202 116.67 97.8734C111.143 94.0274 104.546 91.7154 97.6391 91.2833C90.4881 90.8367 83.9553 92.2124 77.2643 95.3886C70.9902 98.3632 65.5856 102.598 60.9213 108.31C56.2499 114.028 52.8145 121.411 50.3207 128.62C43.7519 147.577 40.1441 167.585 27.5814 183.876C25.3463 186.771 20.5023 186.455 18.0013 184.071C15.0978 181.298 15.3206 177.459 17.5701 174.484L17.5629 174.477Z" fill="#FB213D"/>
<path d="M21.9109 191.82C21.4725 191.892 21.0125 191.921 20.531 191.885C18.2743 191.741 16.5351 190.711 14.4581 189.091C12.9416 187.91 11.8133 186.469 11.3677 185.144C10.6346 182.947 11.1593 181.442 11.7199 180.57C12.496 179.368 13.8328 178.619 15.4714 178.453C17.7137 178.23 20.0638 179.043 22.8739 181.01C24.5341 182.169 25.3246 183.991 25.8349 185.446C26.0936 186.188 26.1799 186.988 26.0721 187.643C25.7055 189.869 24.0669 191.453 21.8965 191.813L21.9109 191.82ZM15.3492 180.282C14.4078 180.441 13.6675 180.887 13.2363 181.55C12.7332 182.328 12.6757 183.372 13.0782 184.575C13.4088 185.562 14.3359 186.721 15.5648 187.672C17.3759 189.076 18.8564 189.977 20.6532 190.092C22.5577 190.214 24.0238 189.112 24.3113 187.362C24.3688 187.009 24.3113 186.505 24.146 186.051C23.7004 184.777 23.0823 183.358 21.8534 182.493C19.417 180.786 17.4478 180.073 15.6583 180.253C15.5577 180.261 15.4499 180.275 15.3492 180.297V180.282Z" fill="#B2B2B2"/>
<path d="M11.3538 211.022C10.2254 211.209 9.03959 211.022 8.04062 210.244C4.92151 207.795 4.83527 203.834 7.78907 199.088C9.03959 197.085 10.4554 195.343 11.8281 193.657C12.4318 192.915 13.0355 192.173 13.6248 191.403L13.6967 191.309C13.941 190.992 14.2716 190.553 14.7963 190.33C15.7809 189.898 16.4564 190.214 16.7655 190.445C17.8651 191.259 17.7501 193.153 17.5417 195.018C17.5201 195.206 17.5057 195.357 17.4914 195.465C17.2901 198.209 17.0961 200.687 16.7367 203.323C16.593 204.367 16.4133 205.483 16.0612 206.513C15.5006 208.17 14.7675 209.279 13.7757 209.992C13.0858 210.489 12.2378 210.871 11.3538 211.015V211.022ZM15.5365 192.382C15.4862 192.447 15.4215 192.534 15.3784 192.591L15.2922 192.699C14.6885 193.484 14.0704 194.241 13.4595 194.99C12.0653 196.697 10.7573 198.317 9.57861 200.204C7.94719 202.826 6.57449 206.405 9.34144 208.58C10.2614 209.308 11.6197 208.955 12.554 208.278C13.1649 207.839 13.6679 207.039 14.0776 205.829C14.3507 205.015 14.5088 204.122 14.6597 203.035C15.0119 200.463 15.1987 198.015 15.4 195.314C15.4072 195.184 15.4287 194.997 15.4575 194.781C15.5868 193.621 15.6228 192.822 15.5509 192.382H15.5365Z" fill="#B2B2B2"/>
<path d="M121.829 258.363C120.923 262.973 119.831 267.539 118.537 272.055C115.526 282.606 110.725 292.084 97.9753 293.172C92.1612 293.669 86.347 292.365 80.6837 290.954C60.7833 285.998 41.2565 279.61 22.3119 271.867C11.4957 267.445 4.87655 259.832 3.10139 248.87C1.03157 236.101 1.92274 222.906 5.76053 210.569C8.13939 202.934 12.0562 195.148 19.2431 191.252C25.8479 187.672 33.9259 188.033 41.4937 188.774C60.8336 190.661 79.9938 194.356 98.6365 199.78C106.866 202.178 115.576 205.318 120.427 212.196C124.818 218.412 125.135 226.421 124.79 233.911C124.416 242.122 123.424 250.304 121.843 258.363H121.829Z" fill="#FFA000"/>
<path d="M103.999 258.701C103.201 262.864 102.231 266.991 101.095 271.075C98.4503 280.618 94.2531 289.188 83.2141 290.226C78.1833 290.701 73.1597 289.549 68.2654 288.295C51.0672 283.909 34.1996 278.219 17.8423 271.305C8.50652 267.358 2.80732 260.509 1.31964 250.62C-0.419585 239.104 0.406906 227.184 3.77755 216.027C5.86175 209.12 9.2827 202.077 15.5209 198.533C21.2488 195.27 28.2417 195.566 34.7746 196.207C51.4984 197.827 68.0642 201.083 84.1628 205.901C91.2706 208.033 98.7953 210.835 102.964 217.021C106.737 222.617 106.974 229.849 106.643 236.612C106.284 244.023 105.393 251.412 103.991 258.701H103.999Z" fill="#FBCE08"/>
<path d="M85.4567 263.074C84.8459 266.264 84.0984 269.433 83.2288 272.566C81.1949 279.884 77.9824 286.46 69.5163 287.252C65.6569 287.612 61.8047 286.733 58.0532 285.775C44.8653 282.412 31.9289 278.047 19.3878 272.746C12.2297 269.721 7.86003 264.471 6.71732 256.887C5.38775 248.057 6.02019 238.917 8.60028 230.361C10.203 225.067 12.8262 219.665 17.6054 216.943C21.9966 214.444 27.358 214.667 32.3745 215.157C45.1959 216.403 57.9023 218.895 70.2493 222.597C75.7041 224.232 81.468 226.378 84.6662 231.124C87.5553 235.417 87.7422 240.963 87.4906 246.148C87.2175 251.831 86.5348 257.499 85.4567 263.088V263.074Z" fill="#F7C019"/>
<path d="M122.721 214.414C120.989 214.702 119.379 214.435 117.927 214.118C115.843 213.665 114.118 212.599 113.191 211.194C110.942 207.788 111.84 203.387 115.333 200.729C117.676 198.943 120.479 198.367 124.158 198.907C126.437 199.246 127.91 201.01 128.938 202.508C129.448 203.257 129.793 204.179 129.879 205.036C130.21 208.457 128.435 211.842 125.452 213.463C124.518 213.967 123.612 214.262 122.728 214.414H122.721ZM120.011 201.061C118.739 201.277 117.64 201.752 116.662 202.494C114.485 204.15 113.227 207.255 115.024 209.977C115.635 210.906 116.864 211.626 118.387 211.958C120.737 212.469 122.469 212.556 124.381 211.518C126.559 210.337 127.91 207.759 127.666 205.26C127.615 204.77 127.407 204.208 127.105 203.769C126.286 202.566 125.251 201.313 123.828 201.104C122.398 200.895 121.133 200.881 120.004 201.068L120.011 201.061Z" fill="#B2B2B2"/>
<path d="M123.699 233.147C123.139 233.24 122.549 233.226 121.946 233.06C117.935 231.98 116.232 228.191 117.145 222.401C117.533 219.959 118.187 217.698 118.819 215.508C119.1 214.55 119.38 213.585 119.639 212.599L119.667 212.476C119.768 212.073 119.912 211.511 120.321 211.079C121.098 210.258 121.881 210.294 122.269 210.387C123.663 210.726 124.324 212.591 124.885 214.478C124.943 214.666 124.986 214.824 125.022 214.932C125.949 217.662 126.782 220.139 127.508 222.819C127.796 223.885 128.076 225.03 128.162 226.175C128.299 228.004 128.047 229.373 127.379 230.475C126.603 231.757 125.266 232.895 123.699 233.154V233.147ZM121.881 212.75C121.859 212.836 121.831 212.937 121.809 213.016L121.773 213.16C121.507 214.169 121.227 215.148 120.939 216.128C120.3 218.346 119.689 220.442 119.322 222.747C118.819 225.944 118.963 229.963 122.513 230.921C123.699 231.245 124.864 230.345 125.489 229.315C125.898 228.638 126.057 227.659 125.956 226.333C125.891 225.433 125.676 224.511 125.374 223.402C124.662 220.788 123.85 218.346 122.93 215.645C122.887 215.515 122.83 215.328 122.765 215.105C122.42 213.938 122.118 213.146 121.874 212.757L121.881 212.75Z" fill="#B2B2B2"/>
<path d="M124.778 228.287L121.382 228.132C119.431 228.042 117.777 229.555 117.688 231.51L117.221 241.741C117.132 243.696 118.641 245.353 120.591 245.442L123.987 245.598C125.938 245.688 127.592 244.175 127.681 242.22L128.148 231.989C128.238 230.034 126.728 228.377 124.778 228.287Z" fill="#F28F00"/>
</g>
<defs>
<clipPath id="clip0_1004_1024">
<rect width="338.861" height="324.529" fill="white" transform="translate(0.4375 0.389648)"/>
</clipPath>
</defs>
</svg>
