<svg width="487" height="271" viewBox="0 0 487 271" fill="none" xmlns="http://www.w3.org/2000/svg">
<path d="M9.20325 94.2061C9.08452 99.952 9.78807 105.646 12.5785 110.347C16.0993 116.279 22.4629 119.592 28.8861 120.655C37.3881 122.063 46.6807 120.499 55.237 119.775C64.2203 119.015 73.1708 117.649 82.0213 115.682C87.178 114.537 92.3726 113.159 97.0213 110.403C102.644 107.069 105.272 102.238 108.504 96.5482C113.066 88.5151 115.794 79.2216 116.074 69.8239C116.156 67.0541 116.003 64.1397 114.671 61.8147C112.417 57.8796 107.952 58.9058 104.303 59.0216C98.8512 59.1955 93.3985 59.3757 87.9466 59.5528C76.8235 59.9136 65.7014 60.2746 54.5783 60.6354C45.8549 60.9185 37.1314 61.2017 28.4069 61.4845C24.32 61.6166 16.7103 61.2481 13.6902 65.0314C11.8777 67.3023 11.8045 72.0044 11.3386 74.8072C10.6516 78.938 10.0939 83.0924 9.66735 87.26C9.43413 89.5427 9.25137 91.8786 9.20325 94.2061Z" fill="#FF0071"/>
<path d="M179.334 143.328L179.292 143.336C177.42 143.713 176.209 145.538 176.586 147.411L177.37 151.305C177.748 153.179 179.571 154.392 181.442 154.014L181.484 154.006C183.355 153.629 184.567 151.805 184.189 149.932L183.405 146.037C183.028 144.164 181.205 142.951 179.334 143.328Z" fill="#063C89"/>
<path d="M70.6212 210.846C70.5807 211.272 70.5401 211.697 70.4996 212.123C69.9684 217.714 69.4363 223.368 70.225 228.929C71.0122 234.489 73.2578 240.036 77.4672 243.751C83.8584 249.392 93.2185 249.747 101.732 249.413C126.271 248.455 150.682 244.237 174.12 236.904C178.698 235.472 183.411 233.819 186.826 230.448C190.235 227.082 191.979 222.313 192.548 217.553C193.117 212.793 192.613 207.976 192.11 203.208C190.618 189.096 189.127 174.984 187.635 160.872C187.309 157.79 186.971 154.659 185.787 151.796C180.011 137.836 169.785 153.357 164.137 158.889C157.981 164.919 151.04 170.306 142.974 173.505C124.609 180.792 101.82 174.735 89.4814 159.287C88.2132 157.699 87.0275 156.006 85.4194 154.764C83.8116 153.523 81.6478 152.787 79.7228 153.433C76.4417 154.535 75.5808 158.695 75.2519 162.144C73.7073 178.378 72.1627 194.611 70.6197 210.846L70.6212 210.846Z" fill="#0256CE"/>
<path d="M81.1128 149.925L81.0707 149.918C79.1833 149.631 77.4207 150.929 77.1337 152.818L76.5371 156.745C76.2502 158.634 77.5476 160.399 79.435 160.687L79.4771 160.693C81.3645 160.981 83.1271 159.682 83.4141 157.793L84.0107 153.866C84.2976 151.977 83.0002 150.212 81.1128 149.925Z" fill="#063C89"/>
<path d="M185.573 16.2211C177.68 19.901 175.18 24.0848 174.27 25.9367C173.391 27.726 173.035 29.2313 172.861 30.2045C170.83 41.5254 168.798 52.845 166.767 64.1659C165.836 69.359 164.901 74.6374 165.513 79.8839C167.157 93.9447 178.914 97.5899 191.624 97.3245C223.107 96.6672 254.567 95.1433 285.951 92.754C290.283 92.4247 295.081 91.8554 297.893 88.6355C300.127 86.077 300.513 82.4771 300.741 79.1146C301.742 64.2712 301.539 49.3451 300.132 34.5204C299.413 26.9367 297.246 20.6356 289.858 17.1611C282.291 13.6012 273.734 12.7866 265.48 12.2026C251.626 11.2226 237.737 10.7333 223.851 10.7373C222.803 10.7373 215.169 10.9227 205.122 11.9586C193.959 13.1092 189.639 14.3225 185.571 16.2198L185.573 16.2211Z" fill="#009000"/>
<path d="M170.418 35.4109C170.658 33.5842 172.332 32.2981 174.157 32.5383C175.982 32.7785 177.266 34.4539 177.027 36.2806L175.147 50.5862C174.907 52.4128 173.234 53.6989 171.409 53.4588C169.584 53.2186 168.299 51.5431 168.539 49.7165L170.418 35.4109Z" fill="#017201"/>
<path d="M295.465 32.6004C295.191 30.7787 296.444 29.0793 298.264 28.8047C300.084 28.5302 301.782 29.7845 302.056 31.6062L304.204 45.8739C304.479 47.6957 303.226 49.3951 301.405 49.6696C299.585 49.9442 297.888 48.6899 297.613 46.8681L295.465 32.6004Z" fill="#017201"/>
<path d="M347.137 190.904L349.758 190.539C351.259 190.331 352.645 191.38 352.853 192.883L353.942 200.757C354.15 202.26 353.101 203.647 351.599 203.856L348.978 204.22C347.476 204.429 346.091 203.38 345.883 201.877L344.794 194.002C344.586 192.5 345.635 191.112 347.137 190.904Z" fill="#F28F00"/>
<path d="M258.306 225.369C258.726 228.986 259.3 232.585 260.024 236.157C261.716 244.499 264.861 252.117 274.669 253.732C279.139 254.468 283.723 253.811 288.195 253.063C303.907 250.434 319.415 246.674 334.556 241.83C343.197 239.064 348.784 233.576 350.825 225.204C353.2 215.454 353.311 205.196 351.087 195.422C349.71 189.371 347.148 183.115 341.818 179.666C336.922 176.499 330.641 176.292 324.74 176.406C309.65 176.698 294.586 178.394 279.825 181.464C273.307 182.82 266.372 184.726 262.198 189.75C258.424 194.292 257.693 200.469 257.505 206.281C257.299 212.653 257.569 219.038 258.306 225.371L258.306 225.369Z" fill="#FFA000"/>
<path d="M272.095 226.711C272.462 229.978 272.963 233.23 273.593 236.457C275.066 243.995 277.795 250.879 286.278 252.35C290.144 253.019 294.107 252.432 297.973 251.761C311.556 249.405 324.962 246.027 338.049 241.669C345.518 239.182 350.343 234.23 352.097 226.67C354.14 217.866 354.225 208.599 352.29 199.768C351.092 194.301 348.869 188.647 344.257 185.526C340.02 182.659 334.588 182.464 329.486 182.561C316.438 182.807 303.414 184.321 290.654 187.077C285.018 188.294 279.025 190.007 275.422 194.539C272.163 198.638 271.538 204.216 271.383 209.466C271.212 215.221 271.452 220.989 272.097 226.71L272.095 226.711Z" fill="#FBCE08"/>
<path d="M286.188 231.212C286.47 233.717 286.853 236.211 287.336 238.685C288.466 244.466 290.559 249.745 297.063 250.872C300.029 251.386 303.067 250.935 306.033 250.421C316.449 248.615 326.73 246.024 336.766 242.681C342.494 240.774 346.194 236.977 347.539 231.179C349.105 224.428 349.17 217.321 347.686 210.55C346.767 206.358 345.063 202.021 341.525 199.627C338.277 197.429 334.11 197.279 330.198 197.353C320.192 197.541 310.204 198.703 300.418 200.816C296.096 201.749 291.501 203.064 288.738 206.539C286.239 209.682 285.76 213.96 285.641 217.986C285.51 222.4 285.694 226.823 286.188 231.21L286.188 231.212Z" fill="#F7C019"/>
<path d="M257.852 201.958L260.497 202.042C262.012 202.091 263.2 203.36 263.151 204.876L262.893 212.822C262.844 214.338 261.576 215.528 260.061 215.48L257.416 215.395C255.901 215.346 254.712 214.078 254.762 212.561L255.02 204.615C255.069 203.099 256.337 201.909 257.852 201.958Z" fill="#F28F00"/>
<path d="M482.198 15.2768L479.716 15.2204C477.256 15.1645 475.216 17.117 475.161 19.5816L474.958 28.5176C474.902 30.9821 476.851 33.0254 479.311 33.0813L481.793 33.1377C484.253 33.1936 486.292 31.2411 486.348 28.7766L486.551 19.8405C486.606 17.376 484.658 15.3328 482.198 15.2768Z" fill="#D30000"/>
<path d="M396.03 5.94551C394.416 6.37221 392.617 6.89436 390.594 7.64671C389.541 8.03973 389.496 8.09588 388.442 8.50574C383.701 10.3473 381.465 10.4315 381.393 11.2232C381.314 12.0485 383.668 12.8963 384.66 13.25C387.91 14.4179 390.241 14.1764 396.406 14.6593C399.813 14.9232 403.512 15.2151 410.774 15.0691C420.156 14.8782 429.576 15.2488 438.996 14.8614C441.227 14.7716 443.451 14.6537 445.676 14.5133C456.537 13.8171 467.42 12.4415 477.77 9.15703C479.166 8.71348 480.982 7.9106 481.363 6.3666C481.906 4.16008 479.693 4.18254 478.095 3.91866C473.354 3.13824 468.591 2.50941 463.805 2.02656C454.239 1.06086 444.617 0.695915 435.006 0.931726C427.133 1.12262 421.478 1.83005 415.403 2.52064C409.53 3.18877 402.934 4.11517 396.03 5.9399V5.94551Z" fill="#D30000"/>
<path d="M389.446 10.173C386.369 9.81923 382.783 9.58904 380.67 11.8629C379.415 13.216 379.023 15.1418 378.714 16.9666C372.511 53.6071 377.269 91.2526 373.604 128.236C372.937 134.928 372.27 142.53 376.742 147.544C378.782 149.835 381.628 151.21 384.402 152.518C387.591 154.018 390.819 155.511 394.26 156.291C399.505 157.476 404.975 156.943 410.315 156.291C419.893 155.118 429.42 153.568 438.913 151.845C448.625 150.076 458.303 148.122 467.942 145.978C472.604 144.939 477.693 143.569 480.371 139.611C485.645 131.891 483.913 120.881 483.65 112.15C483.05 92.106 482.675 72.0508 482.523 51.9957C482.45 41.9681 482.428 31.9405 482.467 21.913C482.478 18.6509 484.67 2.25645 477.743 5.22093C472.935 7.28147 467.807 7.93275 462.646 8.73002C451.158 10.4986 439.563 11.5429 427.946 11.8517C415.096 12.1942 402.223 11.6384 389.452 10.1786L389.446 10.173Z" fill="#FF451A"/>
<path d="M380.636 22.8131L378.169 22.5336C375.724 22.2567 373.518 24.018 373.242 26.4675L372.239 35.3493C371.963 37.7989 373.721 40.0091 376.166 40.286L378.633 40.5654C381.078 40.8424 383.284 39.0811 383.56 36.6316L384.563 27.7498C384.839 25.3002 383.081 23.09 380.636 22.8131Z" fill="#D30000"/>
</svg>
