<svg width="414" height="345" viewBox="0 0 414 345" fill="none" xmlns="http://www.w3.org/2000/svg">
<g clip-path="url(#clip0_1004_1086)">
<path d="M346.459 330.442C346.051 330.442 345.641 330.396 345.234 330.307L339.619 329.065C336.603 328.398 334.693 325.412 335.364 322.407L335.656 321.094C335.98 319.638 336.854 318.396 338.117 317.596C339.38 316.796 340.88 316.532 342.341 316.855L347.955 318.097C350.971 318.765 352.881 321.75 352.211 324.755L351.918 326.068C351.594 327.524 350.721 328.766 349.457 329.566C348.546 330.143 347.513 330.442 346.459 330.442ZM341.119 318.543C340.409 318.543 339.713 318.743 339.098 319.133C338.246 319.672 337.657 320.51 337.439 321.49L337.146 322.804C336.695 324.828 337.982 326.841 340.015 327.29L345.629 328.532C346.614 328.75 347.625 328.572 348.476 328.033C349.328 327.494 349.917 326.656 350.136 325.676L350.428 324.363C350.88 322.338 349.593 320.326 347.559 319.876L341.945 318.634C341.67 318.573 341.394 318.543 341.119 318.543Z" fill="#B2B2B2"/>
<path d="M234.888 326.741C234.012 326.741 233.125 326.537 232.297 326.105L227.202 323.449C225.875 322.758 224.9 321.593 224.453 320.171C224.005 318.749 224.142 317.237 224.837 315.918L225.464 314.725C226.158 313.404 227.328 312.434 228.756 311.988C230.185 311.542 231.703 311.679 233.028 312.37L238.123 315.027C240.86 316.455 241.923 319.832 240.488 322.558L239.862 323.75C238.861 325.652 236.907 326.741 234.888 326.741ZM230.433 313.551C230.055 313.551 229.673 313.608 229.301 313.723C228.338 314.022 227.551 314.678 227.083 315.567L226.456 316.76C225.989 317.649 225.897 318.667 226.198 319.626C226.498 320.585 227.157 321.369 228.05 321.835L233.145 324.491C234.038 324.957 235.061 325.048 236.024 324.749C236.987 324.449 237.775 323.794 238.242 322.904L238.869 321.712C239.836 319.876 239.119 317.598 237.275 316.635L232.18 313.979C231.631 313.693 231.034 313.547 230.433 313.547V313.551Z" fill="#B2B2B2"/>
<path d="M226.961 340.533C226.221 340.533 225.479 340.325 224.824 339.828C222.097 337.75 221.981 334.339 224.5 330.222C225.562 328.485 226.774 326.972 227.946 325.508C228.453 324.874 228.98 324.216 229.486 323.551L229.549 323.466C229.756 323.19 230.037 322.812 230.489 322.61C231.344 322.228 231.927 322.499 232.197 322.693C233.16 323.384 233.079 325.015 232.912 326.623C232.896 326.782 232.882 326.916 232.876 327.011C232.729 329.379 232.583 331.522 232.299 333.784C232.186 334.687 232.04 335.646 231.746 336.539C231.272 337.973 230.654 338.932 229.796 339.56C229.01 340.135 227.986 340.535 226.957 340.535L226.961 340.533ZM231.155 324.373C231.107 324.432 231.056 324.5 231.018 324.551L230.944 324.65C230.423 325.334 229.892 325.999 229.376 326.643C228.187 328.129 227.065 329.531 226.062 331.169C224.671 333.443 223.519 336.541 225.937 338.383C226.744 339 227.914 338.681 228.718 338.094C229.245 337.708 229.669 337.013 230.013 335.973C230.246 335.268 230.371 334.499 230.49 333.56C230.769 331.349 230.91 329.236 231.056 326.9C231.063 326.788 231.079 326.627 231.097 326.439C231.201 325.445 231.219 324.753 231.155 324.375V324.373Z" fill="#B2B2B2"/>
<path d="M341.107 344.882C340.611 344.882 340.106 344.777 339.614 344.539C336.525 343.046 335.727 339.726 337.368 335.191C338.061 333.278 338.944 331.555 339.799 329.887C340.169 329.164 340.553 328.415 340.916 327.662L340.961 327.565C341.109 327.254 341.309 326.826 341.709 326.539C342.471 325.994 343.096 326.143 343.4 326.282C344.483 326.769 344.729 328.381 344.889 329.992C344.904 330.15 344.916 330.285 344.93 330.378C345.261 332.727 345.549 334.857 345.724 337.129C345.794 338.036 345.844 339.005 345.734 339.938C345.559 341.435 345.145 342.499 344.431 343.285C343.619 344.179 342.388 344.88 341.103 344.88L341.107 344.882ZM342.716 328.138C342.68 328.205 342.644 328.282 342.619 328.34L342.567 328.451C342.195 329.225 341.805 329.982 341.431 330.717C340.563 332.408 339.746 334.005 339.091 335.811C338.184 338.317 337.677 341.582 340.416 342.905C341.331 343.347 342.414 342.804 343.082 342.069C343.522 341.586 343.798 340.821 343.926 339.732C344.011 338.995 343.981 338.216 343.91 337.271C343.739 335.053 343.454 332.953 343.128 330.633C343.112 330.521 343.096 330.362 343.076 330.172C342.977 329.176 342.857 328.496 342.72 328.138H342.716Z" fill="#B2B2B2"/>
<path d="M385.124 254.428C385.854 251.929 387.436 249.038 388.041 247.596C391.534 239.291 395.531 231.009 398.392 222.485C400.981 214.776 402.214 206.539 397.322 199.586C385.685 183.048 357.582 192.568 343.868 201.399C343.172 201.848 342.483 202.312 341.807 202.791C323.251 215.932 306.155 230.858 291.062 247.907C272.486 268.891 255.5 291.583 241.597 315.946C239.769 319.151 237.103 319.987 233.663 318.654C230.512 317.434 228.473 314.355 230.102 311.113C242.184 287.047 258.791 265.539 276.203 244.98C292.513 225.722 311.326 208.159 332.217 193.572C341.494 187.095 351.816 182.426 363.045 180.007C377.644 176.862 396.642 179.546 406.49 191.491C410.662 196.552 413.129 203.009 413.417 209.625C413.769 217.723 411.083 225.862 407.974 233.306C405.978 238.084 404.044 242.894 401.802 247.569C399.871 251.6 397.973 257.059 393.484 258.838C391.548 259.604 386.123 260.224 384.985 257.871C384.581 257.037 384.726 255.791 385.122 254.43L385.124 254.428Z" fill="#29A7D9"/>
<path d="M320.39 205.202C330.421 197.829 336.605 194.014 348.227 187.808C353.39 185.053 363.538 181.529 372.129 181.313C380.72 181.097 392.203 183.159 400.046 189.193C403.991 192.228 408.692 196.667 410.549 201.92C412.653 207.872 413.346 214.609 412.188 220.855C411.03 227.099 408.257 232.752 405.843 238.38C403.43 244.009 400.852 249.787 398.128 255.045C385.405 279.597 371.115 303.724 350.724 322.713C348.217 325.048 345.074 324.549 342.822 322.095C340.779 319.87 340.18 316.818 342.525 314.264C358.002 297.417 371.101 279.498 382.049 259.175C385.799 252.214 388.998 245.449 392.856 237.429C398.592 225.504 408.127 207.351 392.918 197.804C391.039 196.625 389.068 195.799 387.19 195.191C383.543 194.01 378.008 193.202 374.733 193.264C368.144 193.388 358.969 196.003 354.558 198.461C344.469 204.083 338.278 207.26 329.486 213.827C318.665 221.907 307.884 230.67 297.773 240.493C296.444 241.785 292.374 242.252 290.414 240.568C288.618 239.025 287.872 234.374 289.109 232.936C298.291 222.267 309.683 213.072 320.392 205.202H320.39Z" fill="#00B6F6"/>
<path d="M297.442 236.216C299.077 236.216 300.402 234.897 300.402 233.269C300.402 231.641 299.077 230.321 297.442 230.321C295.807 230.321 294.481 231.641 294.481 233.269C294.481 234.897 295.807 236.216 297.442 236.216Z" fill="#1F82A8"/>
<path d="M392.63 254.985C394.265 254.985 395.591 253.666 395.591 252.038C395.591 250.41 394.265 249.09 392.63 249.09C390.995 249.09 389.67 250.41 389.67 252.038C389.67 253.666 390.995 254.985 392.63 254.985Z" fill="#1F82A8"/>
</g>
<g clip-path="url(#clip1_1004_1086)">
<path d="M101.694 288.936C102.525 288.472 103.318 287.751 103.972 286.719C104.725 285.531 105.025 284.036 104.916 282.009C104.848 280.734 104.556 279.443 104.252 278.235C103.486 275.19 102.599 272.362 101.602 269.245C101.561 269.116 101.511 268.935 101.452 268.719C100.877 266.635 100.197 264.569 98.7461 264.19C98.2648 264.065 97.5306 264.081 96.7585 264.867C96.3272 265.306 96.1723 265.871 96.0465 266.328L96.0078 266.47C95.693 267.583 95.3468 268.69 95.0141 269.761C94.2486 272.222 93.4586 274.764 92.9698 277.513C91.8339 283.922 93.6261 288.155 98.021 289.431C99.092 289.742 100.438 289.634 101.697 288.932L101.694 288.936ZM98.2901 266.187C98.5378 266.414 98.9327 267.154 99.5117 269.251C99.5815 269.5 99.6383 269.708 99.6854 269.857C100.672 272.941 101.548 275.736 102.301 278.724C102.623 280.007 102.85 281.072 102.907 282.117C102.993 283.703 102.792 284.822 102.273 285.639C101.49 286.875 100.044 287.929 98.5767 287.502C96.2596 286.829 93.7517 284.612 94.9476 277.869C95.4141 275.245 96.1495 272.873 96.9308 270.362C97.267 269.278 97.6167 268.159 97.9384 267.022L97.9822 266.861C98.0339 266.673 98.1199 266.357 98.1906 266.276C98.23 266.236 98.2628 266.207 98.289 266.185L98.2901 266.187Z" fill="#B2B2B2"/>
<path d="M106.048 209.211C106.689 208.854 107.269 208.383 107.764 207.808C108.874 206.522 109.417 204.878 109.29 203.182L109.275 202.99C109.018 199.488 105.959 196.845 102.461 197.102L82.7761 198.538C81.0807 198.66 79.535 199.438 78.4249 200.725C77.3148 202.011 76.7721 203.655 76.8964 205.352L76.9113 205.544C77.0356 207.241 77.8146 208.788 79.1013 209.9C80.3881 211.012 82.0318 211.557 83.7272 211.434L103.412 209.998C104.353 209.929 105.247 209.661 106.047 209.215L106.048 209.211ZM80.9506 200.772C81.5426 200.441 82.203 200.242 82.8994 200.191L102.584 198.755C105.173 198.566 107.435 200.521 107.625 203.11L107.64 203.303C107.734 204.558 107.332 205.773 106.511 206.724C105.69 207.676 104.547 208.25 103.292 208.343L83.6078 209.779C82.3534 209.871 81.1384 209.468 80.1877 208.645C79.235 207.823 78.6606 206.679 78.5666 205.423L78.5517 205.231C78.4589 203.978 78.8605 202.762 79.6813 201.81C80.0469 201.387 80.4761 201.037 80.9506 200.772Z" fill="#B2B2B2"/>
<path d="M75.0042 79.6282L90.4166 78.3725C93.1831 78.1471 95.6106 80.2085 95.8385 82.9769L108.308 234.412C108.536 237.181 106.478 239.608 103.711 239.833L88.2988 241.089C85.5323 241.314 83.1049 239.253 82.877 236.484L70.4078 85.0489C70.1798 82.2805 72.2377 79.8536 75.0042 79.6282Z" fill="#DB0069"/>
<path d="M189.407 250.12C190.46 249.532 191.47 248.721 192.368 247.556C194.66 244.578 194.941 240.356 193.067 237.049C192.604 236.234 191.857 235.467 191.014 234.946C189.297 233.889 187.016 232.76 184.589 233.438C180.589 234.554 177.992 236.411 176.415 239.279C175.343 241.228 174.958 243.426 175.33 245.47C175.731 247.676 177.011 249.567 178.93 250.795C180.486 251.79 182.702 252.084 185.014 251.605C186.429 251.312 187.958 250.927 189.408 250.117L189.407 250.12ZM189.96 236.66C190.515 237.001 191.023 237.518 191.318 238.038C192.774 240.61 192.55 244.018 190.774 246.327C189.221 248.345 187.334 249.069 184.602 249.637C182.8 250.012 181.127 249.815 180.012 249.102C176.757 247.022 176.626 243.074 178.177 240.251C179.477 237.886 181.686 236.339 185.13 235.379C186.797 234.914 188.507 235.767 189.961 236.662L189.96 236.66Z" fill="#B2B2B2"/>
<path d="M199.398 268.891C201.017 267.987 201.943 266.14 202.165 264.415C202.345 263.019 201.982 261.536 201.026 259.745C200.424 258.619 199.614 257.57 198.829 256.605C196.844 254.169 194.844 251.982 192.624 249.581C192.533 249.483 192.411 249.338 192.266 249.169C190.864 247.524 189.372 245.939 187.899 246.211C187.411 246.3 186.753 246.627 186.384 247.667C186.179 248.247 186.279 248.827 186.359 249.292L186.384 249.438C186.569 250.581 186.724 251.73 186.877 252.841C187.226 255.396 187.586 258.037 188.308 260.734C189.99 267.023 193.407 270.099 197.925 269.394C198.467 269.311 198.96 269.133 199.399 268.888L199.398 268.891ZM188.33 248.213C188.651 248.314 189.323 248.817 190.733 250.473C190.9 250.67 191.04 250.834 191.147 250.947C193.345 253.323 195.323 255.484 197.27 257.875C198.104 258.9 198.76 259.771 199.253 260.691C200.002 262.093 200.295 263.193 200.17 264.153C199.985 265.603 199.12 267.173 197.612 267.41C195.23 267.782 192.02 266.835 190.248 260.217C189.559 257.641 189.223 255.179 188.868 252.572C188.714 251.448 188.556 250.285 188.367 249.118L188.34 248.954C188.307 248.761 188.253 248.438 188.28 248.336C188.299 248.281 188.316 248.243 188.332 248.212L188.33 248.213Z" fill="#B2B2B2"/>
<path d="M102.484 267.167C105.671 265.388 107.602 261.777 107.311 258.086C107.237 257.151 106.884 256.141 106.339 255.313C105.231 253.627 103.64 251.64 101.156 251.224C97.0579 250.539 93.9187 251.12 91.2748 253.049C89.4792 254.361 88.1999 256.187 87.671 258.197C87.1011 260.363 87.4591 262.616 88.6788 264.543C89.6685 266.104 91.5527 267.31 93.8489 267.853C96.2751 268.427 99.1223 268.907 102.229 267.302C102.315 267.256 102.4 267.211 102.485 267.164L102.484 267.167ZM104.659 256.418C105.017 256.962 105.26 257.645 105.307 258.241C105.54 261.188 103.895 264.173 101.307 265.515C99.0442 266.686 97.0298 266.541 94.3118 265.896C92.5218 265.472 91.0866 264.587 90.3766 263.467C88.3083 260.204 89.8585 256.574 92.4595 254.674C94.6374 253.085 97.2953 252.618 100.824 253.209C102.531 253.494 103.719 254.991 104.656 256.417L104.659 256.418Z" fill="#B2B2B2"/>
<path d="M99.7312 119.194C99.7881 119.162 99.8449 119.13 99.9016 119.094L113.139 111.107C115.866 109.461 116.745 105.899 115.097 103.168L114.471 102.13C113.674 100.807 112.409 99.8731 110.909 99.5031C109.411 99.132 107.858 99.363 106.536 100.163L93.2986 108.15C91.977 108.947 91.0448 110.211 90.6765 111.712C90.3071 113.21 90.5425 114.765 91.3403 116.088L91.9661 117.126C93.5801 119.801 97.0278 120.703 99.7312 119.194ZM107.445 101.381C108.393 100.851 109.49 100.705 110.549 100.968C111.657 101.243 112.592 101.933 113.182 102.912L113.808 103.95C115.025 105.968 114.376 108.601 112.36 109.817L99.1224 117.804C97.1073 119.021 94.4743 118.367 93.2575 116.349L92.6316 115.311C92.0417 114.332 91.8682 113.183 92.142 112.075C92.4158 110.967 93.1046 110.032 94.0819 109.443L107.319 101.456C107.362 101.432 107.404 101.406 107.448 101.381L107.445 101.381Z" fill="#B2B2B2"/>
<path d="M97.6788 114.83L110.916 106.843C113.293 105.409 116.382 106.176 117.817 108.554L183.309 217.119C184.744 219.498 183.981 222.589 181.605 224.023L168.367 232.01C165.991 233.443 162.901 232.677 161.466 230.298L95.9749 121.733C94.5398 119.354 95.3026 116.263 97.6788 114.83Z" fill="#FF0071"/>
<path d="M94.7646 112.03L108.002 104.043C110.377 102.609 111.141 99.5182 109.705 97.1403L95.3131 75.7583C93.9235 73.8542 91.3708 73.1323 88.4129 74.0473L74.6235 78.6458C72.2484 80.0798 71.4848 83.1705 72.9202 85.5484L87.8644 110.319C89.2999 112.697 92.3895 113.464 94.7646 112.03Z" fill="#FF0071"/>
<path d="M168.761 220.471L170.916 219.098C173.257 217.607 176.364 218.298 177.856 220.642L186.1 233.587C187.592 235.931 186.905 239.039 184.564 240.53L182.409 241.903C180.068 243.394 176.961 242.703 175.469 240.359L167.225 227.413C165.733 225.07 166.421 221.962 168.761 220.471Z" fill="#DB0069"/>
<path d="M93.8958 232.569L96.4439 232.374C99.2115 232.163 101.629 234.237 101.842 237.006L103.024 252.305C103.238 255.075 101.168 257.491 98.4005 257.703L95.8524 257.897C93.0848 258.109 90.6678 256.035 90.4538 253.265L89.272 237.966C89.058 235.197 91.1282 232.78 93.8958 232.569Z" fill="#DB0069"/>
</g>
<path d="M315.714 176.688C313.979 176.201 312.429 174.887 311.529 173.023C310.638 171.178 310.854 169.221 311.141 167.723C311.412 166.31 311.95 164.947 312.432 163.782C313.78 160.527 315.214 157.615 316.563 154.952C316.622 154.834 316.696 154.676 316.781 154.492C317.688 152.527 318.717 150.59 320.421 150.359C320.916 150.291 321.879 150.335 322.764 151.386C323.242 151.954 323.371 152.617 323.464 153.101L323.481 153.188C323.676 154.177 323.887 155.142 324.091 156.078C324.702 158.878 325.28 161.521 325.436 164.707C325.773 171.622 322.964 176.161 317.925 176.847C317.178 176.949 316.431 176.889 315.714 176.688ZM313.873 168.245C313.566 169.841 313.616 170.938 314.033 171.802C314.654 173.089 315.986 174.293 317.555 174.08C319.497 173.816 320.857 172.79 321.714 170.945C322.641 168.947 322.737 166.528 322.656 164.85C322.511 161.896 321.958 159.365 321.372 156.683C321.164 155.734 320.951 154.754 320.75 153.735L320.731 153.641C320.71 153.531 320.683 153.386 320.654 153.281C320.324 153.633 319.871 154.43 319.302 155.664C319.2 155.885 319.112 156.076 319.04 156.215C317.509 159.233 316.238 161.856 314.998 164.849C314.568 165.887 314.092 167.091 313.871 168.245L313.873 168.245Z" fill="#B2B2B2"/>
<path d="M204.919 124.666C202.46 123.977 199.899 122.797 197.83 120.077C194.996 116.354 194.67 111.085 197.017 106.968C197.606 105.934 198.555 104.966 199.621 104.312C201.754 103.002 204.591 101.612 207.634 102.464L207.652 102.469C212.576 103.863 215.771 106.176 217.707 109.745C220.593 115.063 219.241 121.117 214.494 124.138C212.538 125.383 209.768 125.75 206.896 125.141C206.251 125.004 205.588 124.853 204.918 124.665L204.919 124.666ZM201.204 106.918C200.573 107.306 199.993 107.891 199.657 108.481C197.937 111.497 198.18 115.502 200.249 118.22C202.063 120.604 204.293 121.467 207.531 122.152C209.634 122.598 211.579 122.382 212.871 121.559C216.668 119.141 216.834 114.522 215.036 111.209C213.517 108.407 210.905 106.564 206.82 105.407L206.81 105.404C204.909 104.871 202.909 105.868 201.203 106.916L201.204 106.918Z" fill="#B2B2B2"/>
<path d="M317.19 155.218C316.188 154.937 315.185 154.523 314.186 153.923C310.53 151.726 308.681 147.821 309.471 143.974C309.685 142.933 310.19 141.992 310.975 141.174C312.216 139.879 314.214 138.157 317.217 138.144C320.238 138.132 324.531 138.694 327.821 141.434C330.003 143.252 331.341 145.626 331.492 147.949C331.617 149.9 330.925 151.755 329.49 153.316C328.194 154.724 326.11 155.522 323.296 155.689C321.328 155.805 319.265 155.8 317.191 155.219L317.19 155.218ZM312.977 143.107C312.564 143.537 312.3 144.018 312.195 144.531C311.529 147.77 313.527 150.267 315.619 151.525C318.041 152.981 320.664 153.046 323.138 152.901C325.209 152.778 326.66 152.281 327.449 151.423C328.368 150.426 328.792 149.32 328.716 148.137C328.616 146.576 327.642 144.917 326.043 143.585C323.392 141.378 319.782 140.926 317.222 140.937C315.72 140.943 314.411 141.612 312.978 143.109L312.977 143.107Z" fill="#B2B2B2"/>
<path d="M285.227 36.1211C286.238 36.2327 287.021 36.7252 287.577 37.5688C288.761 39.3669 290.181 40.629 292.149 41.401C293.011 41.7387 293.862 41.8268 294.684 41.9223C295.507 42.0166 296.052 42.2656 296.614 42.7868C297.431 43.5443 298.213 44.1221 299.176 44.6633C299.909 45.0751 300.374 45.6656 300.651 46.4676C301.467 48.8381 302.732 50.7602 304.686 52.3087C305.943 53.3065 307.39 53.8293 308.85 54.2699C310.31 54.7105 311.085 55.766 311.15 57.2014C311.25 59.3869 311.721 61.1513 312.987 62.8658C313.541 63.614 314.213 64.1435 314.858 64.6638C315.503 65.184 315.831 65.6837 316.029 66.4215C316.473 68.0752 317.161 69.3984 318.181 70.7515C318.929 71.7433 319.045 72.8311 318.537 73.9608C317.456 76.3716 317.085 78.7016 317.538 81.2886C317.813 82.8618 318.53 84.2246 319.327 85.5136C320.123 86.8022 320.009 88.0913 319.102 89.1828C317.722 90.845 316.909 92.4457 316.704 94.5441C316.614 95.462 316.751 96.3051 316.88 97.1182C317.009 97.9313 316.911 98.5196 316.565 99.1858C315.93 100.416 315.529 101.543 315.309 102.9C315.212 103.498 314.978 103.961 314.59 104.45C312.337 107.299 311.521 110.344 312.059 113.925C312.298 115.514 313.042 116.844 313.822 118.146C314.601 119.447 314.467 120.729 313.551 121.821C312.159 123.484 311.309 125.091 311.092 127.195C310.998 128.115 311.095 128.96 311.245 129.77C311.396 130.58 311.173 131.19 310.896 131.845C309.164 135.936 308.632 139.921 312.174 143.327C315.716 146.732 320.223 146.66 325.284 145.931C326.652 145.734 328.989 143.202 328.817 141.273C328.749 140.509 328.666 139.768 328.391 139.024C328.006 137.98 328.187 137.007 328.837 136.096C329.238 135.536 329.612 134.999 329.882 134.34C330.083 133.845 330.228 133.383 330.335 132.808C330.443 132.231 330.813 131.582 331.237 131.171C331.885 130.542 332.484 129.778 332.663 128.948C333.086 126.979 332.692 125.598 331.55 124.004C330.657 122.758 330.755 121.26 331.705 120.158C333.28 118.328 333.922 116.56 333.234 114.327C332.903 113.251 333.023 112.384 333.539 111.566C334.141 110.611 334.549 109.667 334.559 108.709C334.57 107.75 334.348 107.226 334.095 106.439C333.74 105.335 333.844 104.449 334.497 103.509C334.9 102.931 335.244 102.429 335.507 101.764C335.705 101.263 335.835 100.818 335.937 100.238C336.038 99.6575 336.386 99.0306 336.817 98.6071C337.475 97.9605 338.017 97.2653 338.223 96.3976C338.715 94.334 338.104 93.2234 337.124 91.4263C336.358 90.02 335.857 89.2585 337.402 87.4308C338.557 86.0641 339.928 83.1429 338.219 80.7813C337.666 80.0176 337.634 78.3848 338.377 77.4748C338.74 77.0307 339.024 76.5083 339.141 75.8936C339.556 73.7037 338.947 71.5996 337.358 70.0606C336.26 68.9989 336.023 67.965 336.509 66.5437C337.144 64.6884 336.898 62.6195 335.668 61.1042C335.111 60.418 334.517 60.157 333.815 59.7522C332.83 59.1839 332.28 58.4435 332.141 57.304C332.055 56.6045 331.963 55.9873 331.713 55.3135C331.525 54.8078 331.32 54.3846 331.008 53.8824C330.695 53.3802 330.534 52.6753 330.569 52.0673C330.62 51.1386 330.556 50.2459 330.125 49.4618C329.101 47.6002 327.907 47.2044 325.975 46.5246C324.464 45.9927 323.577 45.7581 323.505 43.3515C323.453 41.5539 322.55 38.4311 319.674 37.8213C318.745 37.624 317.636 36.4225 317.586 35.2343C317.562 34.6554 317.412 34.0902 317.099 33.5283C316.467 32.3975 315.464 31.5112 314.298 30.8976C313.828 30.6502 313.412 30.2747 313.128 29.8608C312.385 28.7797 311.397 27.8745 310.199 27.5265C309.335 27.2758 308.727 27.352 307.912 27.4018C306.771 27.4688 305.922 27.1225 305.196 26.24C304.749 25.6966 304.337 25.2191 303.766 24.7843C303.337 24.4575 302.938 24.2129 302.406 23.9569C301.873 23.7009 301.356 23.1903 301.06 22.6612C300.606 21.8499 300.072 21.1316 299.29 20.7041C297.433 19.6904 296.226 19.9996 294.236 20.476C292.679 20.8497 291.815 21.1045 290.468 19.121C289.464 17.6392 287.039 15.4882 284.289 16.525C283.401 16.8605 281.832 16.4419 281.153 15.4765C280.822 15.0057 280.398 14.5982 279.827 14.3035C278.462 13.5974 276.983 13.4366 275.44 13.7355C274.819 13.8556 274.283 13.7997 273.662 13.5944C271.88 13.0041 269.917 13.2397 268.457 14.3982C267.763 14.9491 267.502 15.5268 267.087 16.2225C266.507 17.1991 265.76 17.7141 264.627 17.8219C263.931 17.8876 263.313 17.9627 262.638 18.1937C262.133 18.3671 261.711 18.5604 261.203 18.8572C260.695 19.154 259.993 19.2983 259.389 19.2517C258.474 19.1806 257.579 19.2221 256.794 19.6356C254.933 20.6153 254.519 21.7802 253.814 23.6945C253.262 25.19 252.987 26.0351 250.616 26.0495C248.845 26.0606 245.717 26.8849 245.059 29.7311C244.847 30.6497 243.619 31.7353 242.459 31.741C241.894 31.7436 241.285 31.9457 240.76 32.1852C240.536 32.287 240.218 32.5093 240.031 32.644C239.843 32.777 239.671 32.8704 239.497 32.9564C238.22 33.5907 237.08 34.5904 236.593 35.887C236.277 36.726 236.32 37.3243 236.31 38.1332C236.296 39.2686 235.899 40.0723 234.973 40.728C234.404 41.1302 233.903 41.5007 233.432 42.0355C233.08 42.4371 232.811 42.8099 232.522 43.3202C232.232 43.8285 231.692 44.3055 231.147 44.5641C230.318 44.958 229.564 45.4483 229.091 46.196C227.969 47.9674 228.194 49.1746 228.536 51.1673C228.803 52.7259 228.984 53.5849 226.94 54.7726C225.415 55.6593 223.118 57.9378 223.975 60.7221C224.253 61.6222 223.722 63.1375 222.729 63.7411C222.244 64.0357 221.813 64.4592 221.478 64.983C220.905 65.8808 220.607 66.9541 220.536 68.0433C220.497 68.6275 220.24 69.2659 219.919 69.6834C219.598 70.1009 219.369 70.4654 219.231 70.8727C218.96 71.6648 218.932 72.306 218.921 73.1043C218.906 74.2237 218.47 75.0464 217.548 75.6907C216.98 76.0864 216.464 76.4631 215.991 76.9954C215.635 77.3944 215.361 77.7707 215.064 78.2809C214.769 78.7894 214.224 79.2667 213.674 79.5239C212.836 79.9155 212.08 80.4017 211.601 81.153C210.463 82.9353 210.68 84.1493 211.008 86.1661C211.265 87.7428 211.46 88.6059 209.407 89.8293C207.874 90.7419 205.586 93.0509 206.455 95.8646C206.735 96.7725 206.223 98.314 205.238 98.9567C204.757 99.2697 204.312 99.6561 204.005 100.23C203.22 101.693 202.869 103.164 203.263 104.921C203.47 105.838 204.057 106.913 205.024 107.439C209.13 109.678 213.406 111.909 218.142 110.791C222.878 109.674 225.223 106.21 226.269 101.744C226.628 100.214 226.267 98.6868 225.978 97.2253C225.689 95.7638 226.211 94.5838 227.443 93.8685C229.316 92.7784 230.629 91.5243 231.541 89.6205C231.94 88.7874 232.088 87.9717 232.238 87.1649C232.387 86.3565 232.692 85.8539 233.233 85.3353C235.588 83.0662 236.738 80.5714 236.736 77.3161C236.734 76.0594 237.227 75.2105 238.27 74.5633C241.363 72.6444 243.176 70.0781 243.849 66.5151C244.147 64.9432 243.874 63.5337 243.568 62.0618C243.261 60.59 243.806 59.4638 245.043 58.7499C246.924 57.6621 248.203 56.5035 249.162 54.536C249.309 54.2359 249.37 53.9503 249.515 53.5799C249.943 52.4942 250.733 51.8336 251.916 51.614C254.834 51.0737 257.16 49.8026 259.068 47.543C260.103 46.3177 260.622 44.9582 261.099 43.5208C261.575 42.0829 262.643 41.3796 264.06 41.3723C266.218 41.3611 268.003 40.9637 269.734 39.7533C270.492 39.2238 271.035 38.5904 271.559 37.9638C272.083 37.3372 272.638 37.036 273.327 36.8774C274.016 36.7187 274.462 36.6058 275.092 36.3904C275.722 36.175 276.361 36.1719 276.999 36.349C277.841 36.5816 278.672 36.7934 279.535 36.8532C281.119 36.9629 282.57 36.7502 284.076 36.2868C284.467 36.167 284.824 36.0885 285.23 36.1343L285.227 36.1211Z" fill="#70372D"/>
<path d="M190.809 146.337C187.987 145.546 186.41 142.733 186.089 140.143C185.87 138.379 186.327 136.519 187.528 134.291C188.276 132.901 189.274 131.616 190.241 130.435C192.663 127.474 195.101 124.821 197.808 121.905C197.907 121.799 198.06 121.62 198.237 121.412C200.001 119.35 201.887 117.368 203.828 117.733C204.376 117.838 205.372 118.231 205.884 119.708C206.156 120.487 206.019 121.266 205.919 121.836L205.889 122.012C205.66 123.394 205.464 124.79 205.273 126.14C204.837 129.253 204.384 132.47 203.49 135.766C202.614 138.999 201.35 141.572 199.735 143.41C197.523 145.929 194.66 146.991 191.453 146.479C191.232 146.443 191.016 146.397 190.808 146.338L190.809 146.337ZM202.984 120.94C202.452 121.301 201.635 122.123 200.543 123.397C200.343 123.63 200.172 123.83 200.03 123.983C197.359 126.86 194.955 129.476 192.589 132.369C191.584 133.597 190.794 134.639 190.203 135.737C189.331 137.357 188.972 138.673 189.107 139.758C189.312 141.41 190.267 143.198 191.937 143.461C196.939 144.259 199.384 139.282 200.554 134.968C201.398 131.859 201.817 128.876 202.259 125.719C202.451 124.352 202.651 122.936 202.887 121.515C202.899 121.448 202.91 121.382 202.921 121.313C202.94 121.21 202.964 121.068 202.982 120.941L202.984 120.94Z" fill="#B2B2B2"/>
<defs>
<clipPath id="clip0_1004_1086">
<rect width="190.756" height="166.089" fill="white" transform="translate(222.691 178.793)"/>
</clipPath>
<clipPath id="clip1_1004_1086">
<rect width="111.822" height="226.934" fill="white" transform="matrix(-0.873156 0.487441 0.487441 0.873156 98.5547 65.2861)"/>
</clipPath>
</defs>
</svg>
